<svg width="5" height="5" viewBox="0 0 5 5" fill="none" xmlns="http://www.w3.org/2000/svg">
<g clip-path="url(#clip0_713_285)">
<path d="M3.51251 0.4524L4.55251 1.4824C4.67001 1.5849 4.68251 1.7599 4.58001 1.8774C4.47751 1.9949 4.30251 2.0074 4.18501 1.9049C4.17463 1.89703 4.16538 1.88777 4.15751 1.8774L4.05251 1.7949L2.99001 3.2949L3.32251 3.6274C3.42501 3.7449 3.41251 3.9199 3.29501 4.0224C3.19001 4.1149 3.03251 4.1149 2.92751 4.0224L0.970006 2.0524C0.867506 1.9349 0.880006 1.7599 0.997506 1.6574C1.10251 1.5649 1.26001 1.5649 1.36501 1.6574L1.69501 1.9899L3.19501 0.9274L3.11751 0.8474C3.00001 0.7449 2.98751 0.5699 3.09001 0.4524C3.19251 0.3349 3.36751 0.3224 3.48501 0.4249C3.49538 0.432774 3.50463 0.442026 3.51251 0.4524ZM1.94251 3.4349L1.55251 3.0499C1.23751 3.4299 0.740006 3.9824 0.650006 4.0974C0.517506 4.2599 0.417506 4.4474 0.350006 4.6449C0.547506 4.5799 0.735006 4.4774 0.897506 4.3474C1.01251 4.2574 1.56501 3.7599 1.94251 3.4399V3.4349Z" fill="#3071C3"/>
</g>
<defs>
<clipPath id="clip0_713_285">
<rect width="5" height="5" fill="white"/>
</clipPath>
</defs>
</svg>
