<?xml version="1.0" encoding="UTF-8"?>
<svg width="12px" height="10px" viewBox="0 0 12 10" version="1.1" xmlns="http://www.w3.org/2000/svg" xmlns:xlink="http://www.w3.org/1999/xlink">
    <title>形状</title>
    <g id="页面-3" stroke="none" stroke-width="1" fill="none" fill-rule="evenodd" fill-opacity="0.8">
        <g id="预约会议室" transform="translate(-652.000000, -370.000000)" fill="#316AF6" fill-rule="nonzero">
            <g id="编组-6" transform="translate(480.000000, 239.000000)">
                <g id="编组-2" transform="translate(24.000000, 126.000000)">
                    <g id="容纳人数" transform="translate(142.000000, 1.000000)">
                        <g id="编组" transform="translate(12.000000, 8.510295) scale(-1, 1) translate(-12.000000, -8.510295) translate(6.000000, 4.000000)">
                            <path d="M3.00363215,5.41044433 C3.73364979,5.41405414 4.39466768,4.97458626 4.67433208,4.29903978 C4.95399647,3.6234933 4.80145729,2.84988987 4.28571429,2.33051471 C3.76997128,1.81477171 2.9927357,1.65860038 2.31718922,1.93826477 C1.64164274,2.21792917 1.20218593,2.87531491 1.20218593,3.60533255 C1.20218593,4.600486 2.00846763,5.41044433 3.00363215,5.41044433 Z M11.4479355,6.72519347 C11.1065357,6.31840386 10.6670678,6.00241797 10.1694855,5.80993623 C9.41404283,5.52663968 8.60775006,5.39226125 7.80144622,5.41042199 C6.99515344,5.3886291 6.18886067,5.52300753 5.43340691,5.80993623 C4.93583573,6.00242905 4.49635678,6.31840386 4.15495692,6.72518239 C3.82808567,7.11744341 3.63194962,7.60775029 3.6029035,8.116229 C3.6029035,8.61381126 4.00604989,9.01695764 4.50363215,9.01695764 L11.0992714,9.01695764 C11.5968536,9.01695764 12,8.61381126 12,8.116229 C11.974575,7.60775029 11.77845,7.11744341 11.4479355,6.72518239 L11.4479355,6.72519347 Z M7.80507836,4.81115639 C8.77844999,4.81477171 9.65738574,4.23002895 10.0314749,3.32930031 C10.4055641,2.43221488 10.2021749,1.39346458 9.51209978,0.707032723 C8.82566792,0.0169576438 7.79054977,-0.190063773 6.8898322,0.184025422 C5.98910355,0.554482467 5.40436079,1.43341822 5.40436079,2.40678984 C5.40436079,3.72882562 6.47578936,4.80750741 7.80507836,4.81115639 L7.80507836,4.81115639 Z M4.00604989,6.2639327 C4.14042833,5.9842683 3.88620005,5.95521111 3.72275335,5.94794681 C3.62106425,5.94068252 1.44188562,5.82446482 0.399514237,7.03753613 C0.141642735,7.33899342 0,7.72397906 0,8.11986115 C0,8.61744341 0.403146386,9.02058979 0.900728645,9.02058979 L2.93825347,9.02058979 C3.23244646,9.02058979 3.29781407,8.87530383 3.23971076,8.7191325 C2.77118569,7.4842683 3.99515344,6.29297882 4.00604989,6.2639327 L4.00604989,6.2639327 Z" id="形状"></path>
                        </g>
                    </g>
                </g>
            </g>
        </g>
    </g>
</svg>